<?xml version="1.0" encoding="UTF-8"?>
<svg xmlns="http://www.w3.org/2000/svg" xmlns:xlink="http://www.w3.org/1999/xlink" width="500px" height="500px" viewBox="0 0 500 500" version="1.1">
<g id="surface1">
<path style=" stroke:none;fill-rule:nonzero;fill:rgb(17.254902%,17.254902%,17.254902%);fill-opacity:1;" d="M 280.304688 261.394531 C 332.574219 274.847656 371.210938 322.304688 371.210938 378.789062 C 371.210938 445.734375 316.945312 500 250 500 C 183.054688 500 128.789062 445.734375 128.789062 378.789062 C 128.789062 322.3125 167.425781 274.847656 219.695312 261.394531 L 219.695312 30.304688 C 219.695312 13.566406 233.265625 0 250 0 C 266.734375 0 280.304688 13.566406 280.304688 30.304688 Z M 250 424.242188 C 275.105469 424.242188 295.453125 403.890625 295.453125 378.789062 C 295.453125 353.683594 275.105469 333.332031 250 333.332031 C 224.894531 333.332031 204.546875 353.683594 204.546875 378.789062 C 204.546875 403.890625 224.894531 424.242188 250 424.242188 Z M 250 424.242188 "/>
</g>
</svg>
